<svg width="24" height="10" viewBox="0 0 24 10" fill="none" xmlns="http://www.w3.org/2000/svg">
<path d="M18.3099 10V9.83051C18.3099 8.85122 18.5352 7.45763 18.9859 5.64972H13.9155L10.4225 9.77401H0L3.09859 5.70622H9.97183L13.0141 5.08475V4.91525L9.97183 4.29379H3.09859L0 0.225989H10.4225L13.9155 4.35028H18.9859C18.5352 2.54237 18.3099 1.14878 18.3099 0.169492V0C19.061 0.86629 19.9343 1.742 20.9296 2.62712C21.9437 3.51224 22.9671 4.3032 24 5C22.9859 5.65913 21.9624 6.44068 20.9296 7.34463C19.8967 8.22976 19.0235 9.11488 18.3099 10Z" fill="#212222"/>
</svg>
