<svg width="18" height="18" viewBox="0 0 18 18" fill="none" xmlns="http://www.w3.org/2000/svg">
<path d="M6.21967 2.46973C6.51256 2.17684 6.98732 2.17684 7.28022 2.46973C7.57311 2.76262 7.57311 3.23738 7.28022 3.53028L4.06049 6.75L7.28022 9.96973C7.57311 10.2626 7.57311 10.7374 7.28022 11.0303C6.98732 11.3232 6.51256 11.3232 6.21967 11.0303L2.46967 7.28028C2.17678 6.98738 2.17678 6.51262 2.46967 6.21973L6.21967 2.46973Z" fill="#212222"/>
<path d="M14.25 10.875C14.25 10.4319 14.1625 9.99316 13.9929 9.58374C13.8233 9.17427 13.5746 8.80217 13.2612 8.48877C12.9478 8.17537 12.5757 7.92669 12.1663 7.75708C11.7568 7.58752 11.3181 7.5 10.875 7.5H3C2.58579 7.5 2.25 7.16421 2.25 6.75C2.25 6.33579 2.58579 6 3 6H10.875C11.5152 6 12.149 6.12635 12.7405 6.37134C13.3319 6.61633 13.8698 6.9748 14.3225 7.42749C14.7752 7.88018 15.1337 8.41806 15.3787 9.00952C15.6237 9.60098 15.75 10.2348 15.75 10.875L15.7441 11.1145C15.7167 11.6729 15.5931 12.2229 15.3787 12.7405C15.1337 13.3319 14.7752 13.8698 14.3225 14.3225C13.8698 14.7752 13.3319 15.1337 12.7405 15.3787C12.149 15.6237 11.5152 15.75 10.875 15.75H8.25C7.83579 15.75 7.5 15.4142 7.5 15C7.5 14.5858 7.83579 14.25 8.25 14.25H10.875C11.3181 14.25 11.7568 14.1625 12.1663 13.9929C12.5757 13.8233 12.9478 13.5746 13.2612 13.2612C13.5746 12.9478 13.8233 12.5757 13.9929 12.1663C14.1412 11.8081 14.2265 11.4276 14.2456 11.0413L14.25 10.875Z" fill="#212222"/>
</svg>
